<svg xmlns="http://www.w3.org/2000/svg" xmlns:xlink="http://www.w3.org/1999/xlink" viewBox="0 0 1916 749.13"><defs><style>.cls-1{fill:url(#Gradient_bez_nazwy_91);}.cls-2{fill:#339af0;}.cls-3{fill:#1864ab;}.cls-4{fill:#fff;}.cls-5{fill:#1865ac;}</style><linearGradient id="Gradient_bez_nazwy_91" x1="958" x2="958" y2="748" gradientUnits="userSpaceOnUse"><stop offset="0" stop-color="#155592"/><stop offset="0.11" stop-color="#165d9e"/><stop offset="0.4" stop-color="#196ebc"/><stop offset="0.66" stop-color="#1a79ce"/><stop offset="0.84" stop-color="#1b7dd4"/></linearGradient></defs><title>background4</title><g id="Warstwa_3" data-name="Warstwa 3"><rect class="cls-1" width="1916" height="748"/></g><g id="Warstwa_1" data-name="Warstwa 1"><path class="cls-2" d="M2260.84,373.87C2131.57,382.49,2034,495.79,2034,625.4V738.53a13.57,13.57,0,0,0,13.53,13.53h27.06a13.57,13.57,0,0,0,13.53-13.53V616.78c0-112.62,98.84-202.66,214.33-187.78,95.46,12.26,164.45,98.16,164.45,194.38V738.53a13.57,13.57,0,0,0,13.53,13.53h27.06A13.57,13.57,0,0,0,2521,738.53V616.78c0-139.76-118.37-252.46-260.16-242.91Zm-4.73,81.93c-81.76,10.48-140.94,84.13-140.94,166.65V738.53a13.57,13.57,0,0,0,13.53,13.53h27.06a13.57,13.57,0,0,0,13.53-13.53V616.78a108.39,108.39,0,0,1,119-107.71c56.22,5.5,97.4,56,97.4,112.53V738.53a13.57,13.57,0,0,0,13.53,13.53h27.06a13.57,13.57,0,0,0,13.53-13.53V616.78c0-96.55-84.72-173.66-183.72-161Zm5.24,81.42c-38.55,7.52-65,43.54-65,82.77V738.53a13.57,13.57,0,0,0,13.53,13.53h27.06a13.57,13.57,0,0,0,13.53-13.53V616.78a27.06,27.06,0,0,1,54.11,0V738.53a13.57,13.57,0,0,0,13.53,13.53h27.06a13.57,13.57,0,0,0,13.53-13.53V616.78a81.25,81.25,0,0,0-97.32-79.56Z" transform="translate(-1973 -5)"/><path class="cls-3" d="M2433.34,669m33.4,36.21h0a4.55,4.55,0,0,1-7.05-.34L2433.34,669l-45.47,70.73a8.69,8.69,0,0,0,7.31,13.39h156.2a9,9,0,0,0,6.69-2.84,8.7,8.7,0,0,0,.88-10.55h0L2480.72,618a8.69,8.69,0,0,0-14.62,0l-26.41,41.08,27.47,38.09A6.39,6.39,0,0,1,2466.74,705.16Z" transform="translate(-1973 -5)"/><path class="cls-3" d="M2751.33,732.07,2628.59,541.13a13.64,13.64,0,0,0-22.95,0L2482.9,732.07a13.64,13.64,0,0,0,11.47,21h245.49a13.64,13.64,0,0,0,11.47-21ZM2617.12,573.73l36.39,56.61h-36.39l-27.28,27.28-16.22-16.22Z" transform="translate(-1973 -5)"/><path class="cls-3" d="M2478.39,737.47l-91.17-141.82a10.13,10.13,0,0,0-17,0L2279,737.47a10.13,10.13,0,0,0,8.52,15.61h182.34a10.13,10.13,0,0,0,8.52-15.61Z" transform="translate(-1973 -5)"/><path class="cls-4" d="M3670.23,109a28.23,28.23,0,1,0,28.23,28.23A28.27,28.27,0,0,0,3670.23,109Zm72.45,23.67-27.84-13.91,9.85-29.52a5.08,5.08,0,0,0-6.44-6.44l-29.52,9.85-13.94-27.87a5.09,5.09,0,0,0-9.11,0l-13.91,27.84-29.55-9.85a5.08,5.08,0,0,0-6.44,6.44l9.85,29.52-27.84,13.94a5.09,5.09,0,0,0,0,9.11l27.84,13.91-9.85,29.55a5.08,5.08,0,0,0,6.44,6.44l29.52-9.85,13.91,27.84a5.09,5.09,0,0,0,9.11,0l13.91-27.84,29.52,9.85a5.08,5.08,0,0,0,6.44-6.44l-9.85-29.52,27.84-13.91a5.1,5.1,0,0,0,.06-9.14Zm-45.84,31.17a37.63,37.63,0,1,1,0-53.22A37.67,37.67,0,0,1,3696.84,163.84Z" transform="translate(-1973 -5)"/><path class="cls-2" d="M3635.8,201.7a18.61,18.61,0,0,0-17.35-25.29,18.49,18.49,0,0,0-10.32,3.14A31,31,0,0,0,3550.3,195c0,.52,0,1,0,1.57a27.89,27.89,0,0,0,9.26,54.2h71.26a24.78,24.78,0,0,0,5-49.07Z" transform="translate(-1973 -5)"/><path class="cls-2" d="M3455.05,72a14,14,0,0,0-13-19,13.87,13.87,0,0,0-7.74,2.35A23.23,23.23,0,0,0,3390.94,67c0,.39,0,.78,0,1.18a20.91,20.91,0,0,0,6.94,40.64h53.43A18.58,18.58,0,0,0,3455.05,72Z" transform="translate(-1973 -5)"/><path class="cls-2" d="M2171.17,75.85a17.21,17.21,0,0,0-16-23.39,17.1,17.1,0,0,0-9.54,2.9,28.65,28.65,0,0,0-53.49,14.29c0,.48,0,1,0,1.45a25.79,25.79,0,0,0,8.56,50.12h65.9a22.92,22.92,0,0,0,4.58-45.38Z" transform="translate(-1973 -5)"/><path class="cls-2" d="M2380.52,126.63c-.12,0-.23,0-.33,0a16.1,16.1,0,0,0,.33-3.34,16.43,16.43,0,0,0-29.07-10.56,23,23,0,0,0-43.51,10.56,23.45,23.45,0,0,0,.43,4.37,19.74,19.74,0,0,0,6.17,38.52h66a19.8,19.8,0,1,0,0-39.59Zm-67.63,50.77c-2.64,9.16-8.25,11.63-8.25,18.08a9.91,9.91,0,1,0,19.8,0c0-6.47-5.61-8.89-8.25-18.08A1.7,1.7,0,0,0,2312.88,177.4Zm33,0c-2.64,9.16-8.25,11.63-8.25,18.08a9.91,9.91,0,1,0,19.8,0c0-6.47-5.61-8.89-8.25-18.08A1.7,1.7,0,0,0,2345.88,177.4Zm33,0c-2.64,9.16-8.25,11.63-8.25,18.08a9.91,9.91,0,1,0,19.8,0c0-6.47-5.61-8.89-8.25-18.08A1.7,1.7,0,0,0,2378.87,177.4Z" transform="translate(-1973 -5)"/><path class="cls-4" d="M2275.7,733.35,2263.93,720h4.51a3.35,3.35,0,0,0,3.06-1.92,3.25,3.25,0,0,0-.48-3.54l-11.5-13.38h4.25a3.34,3.34,0,0,0,3.07-2,3.28,3.28,0,0,0-.62-3.55L2250,678.34a2.42,2.42,0,0,0-3.43,0l-16.24,17.3a3.28,3.28,0,0,0-.62,3.55,3.34,3.34,0,0,0,3.07,2H2237l-11.5,13.38a3.25,3.25,0,0,0-.48,3.54,3.34,3.34,0,0,0,3.06,1.92h4.51l-11.76,13.32a3.25,3.25,0,0,0-.52,3.57,3.41,3.41,0,0,0,3.09,2h20.15v3.6l-4.46,7.13a2.36,2.36,0,0,0,2.11,3.41h14.13a2.36,2.36,0,0,0,2.11-3.41l-4.46-7.13v-3.6h20.15a3.41,3.41,0,0,0,3.09-2A3.25,3.25,0,0,0,2275.7,733.35Z" transform="translate(-1973 -5)"/><path class="cls-2" d="M2303.75,125c0-.57-.06-1.14-.06-1.7A27.37,27.37,0,0,1,2331,96a27.07,27.07,0,0,1,21.26,10.3c.53-.37,1.08-.7,1.64-1a16.22,16.22,0,0,0,.3-3.15,16.43,16.43,0,0,0-29.07-10.56,23,23,0,0,0-43.51,10.56,23.45,23.45,0,0,0,.43,4.37,19.74,19.74,0,0,0,6.17,38.52h2.3A23.91,23.91,0,0,1,2303.75,125Z" transform="translate(-1973 -5)"/><path class="cls-2" d="M2099.19,226.59c-2.64,9.16-8.25,11.63-8.25,18.08a9.91,9.91,0,1,0,19.8,0c0-6.47-5.61-8.89-8.25-18.08A1.7,1.7,0,0,0,2099.19,226.59Z" transform="translate(-1973 -5)"/><path class="cls-2" d="M2132.18,226.59c-2.64,9.16-8.25,11.63-8.25,18.08a9.91,9.91,0,1,0,19.8,0c0-6.47-5.61-8.89-8.25-18.08A1.7,1.7,0,0,0,2132.18,226.59Z" transform="translate(-1973 -5)"/><path class="cls-2" d="M2165.17,226.59c-2.64,9.16-8.25,11.63-8.25,18.08a9.91,9.91,0,1,0,19.8,0c0-6.47-5.61-8.89-8.25-18.08A1.7,1.7,0,0,0,2165.17,226.59Z" transform="translate(-1973 -5)"/><path class="cls-3" d="M3273.5,659.94l-51.22,45.18a10.84,10.84,0,0,1-1.28.79v43.35a3.75,3.75,0,0,0,3.75,3.75h97.5a3.75,3.75,0,0,0,3.75-3.75V705.91a10.94,10.94,0,0,1-1.23-.75Zm66.26,28.43L3326,676.23v-32a3.75,3.75,0,0,0-3.75-3.75h-15a3.75,3.75,0,0,0-3.75,3.75v12.11l-23.73-20.95a9.34,9.34,0,0,0-12.53,0l-60,53a3.75,3.75,0,0,0-.28,5.3l5,5.58a3.75,3.75,0,0,0,5.3.28L3271,652.13a3.75,3.75,0,0,1,5,0l53.75,47.41a3.75,3.75,0,0,0,5.3-.28l5-5.58A3.75,3.75,0,0,0,3339.76,688.38Zm-45,64.47h-29V714.72a5.45,5.45,0,0,1,5.45-5.45h18.15a5.45,5.45,0,0,1,5.45,5.45Z" transform="translate(-1973 -5)"/><path class="cls-3" d="M3602.37,737.64h-7.72V561.51a9.27,9.27,0,0,0-9.27-9.27H3455.59a9.27,9.27,0,0,0-9.27,9.27V737.64h-7.72a4.64,4.64,0,0,0-4.63,4.63V750h173v-7.72A4.64,4.64,0,0,0,3602.37,737.64Zm-119-156A4.64,4.64,0,0,1,3488,577h15.45a4.64,4.64,0,0,1,4.63,4.63V597a4.64,4.64,0,0,1-4.63,4.63H3488a4.64,4.64,0,0,1-4.63-4.63Zm0,37.08A4.64,4.64,0,0,1,3488,614h15.45a4.64,4.64,0,0,1,4.63,4.63v15.45a4.64,4.64,0,0,1-4.63,4.63H3488a4.64,4.64,0,0,1-4.63-4.63Zm20.08,57.16H3488a4.64,4.64,0,0,1-4.63-4.63V655.76a4.64,4.64,0,0,1,4.63-4.63h15.45a4.64,4.64,0,0,1,4.63,4.63v15.45A4.64,4.64,0,0,1,3503.49,675.84Zm29.35,61.8h-24.72V705.2a4.64,4.64,0,0,1,4.63-4.63h15.45a4.64,4.64,0,0,1,4.63,4.63Zm24.72-66.43a4.64,4.64,0,0,1-4.63,4.63h-15.45a4.64,4.64,0,0,1-4.63-4.63V655.76a4.64,4.64,0,0,1,4.63-4.63h15.45a4.64,4.64,0,0,1,4.63,4.63Zm0-37.08a4.64,4.64,0,0,1-4.63,4.63h-15.45a4.64,4.64,0,0,1-4.63-4.63V618.68a4.64,4.64,0,0,1,4.63-4.63h15.45a4.64,4.64,0,0,1,4.63,4.63Zm0-37.08a4.64,4.64,0,0,1-4.63,4.63h-15.45a4.64,4.64,0,0,1-4.63-4.63V581.6a4.64,4.64,0,0,1,4.63-4.63h15.45a4.64,4.64,0,0,1,4.63,4.63Z" transform="translate(-1973 -5)"/><path class="cls-4" d="M3481.8,708h-9.36l-2.6-6.5a17.42,17.42,0,0,0-16.25-11h-19.85a17.43,17.43,0,0,0-16.26,11l-2.6,6.5h-9.36a1.88,1.88,0,0,0-1.82,2.33l.94,3.75a1.87,1.87,0,0,0,1.82,1.42h3.14a9.94,9.94,0,0,0-3.45,7.5v7.5a9.92,9.92,0,0,0,2.5,6.55v8.45a5,5,0,0,0,5,5h5a5,5,0,0,0,5-5v-5h40v5a5,5,0,0,0,5,5h5a5,5,0,0,0,5-5V737a9.92,9.92,0,0,0,2.5-6.55V723a9.94,9.94,0,0,0-3.45-7.5h3.14a1.87,1.87,0,0,0,1.82-1.42l.94-3.75a1.88,1.88,0,0,0-1.82-2.33Zm-55-2.79a7.5,7.5,0,0,1,7-4.72h19.85a7.5,7.5,0,0,1,7,4.72l3.12,7.79h-40Zm-8.12,25.27a5,5,0,1,1,0-10c3,0,7.5,4.49,7.5,7.48s-4.5,2.49-7.5,2.49Zm50,0c-3,0-7.5.5-7.5-2.49s4.5-7.48,7.5-7.48a5,5,0,1,1,0,10Z" transform="translate(-1973 -5)"/><path class="cls-5" d="M3877,625.18h-53.9V558.6a9.51,9.51,0,0,0-9.51-9.51h-57.07a9.51,9.51,0,0,0-9.51,9.51v28.53h-25.36v-31.7a6.34,6.34,0,0,0-6.34-6.34H3709a6.34,6.34,0,0,0-6.34,6.34v31.7h-25.36v-31.7a6.34,6.34,0,0,0-6.34-6.34h-6.34a6.34,6.34,0,0,0-6.34,6.34v31.7h-15.85a9.51,9.51,0,0,0-9.51,9.51V739.32A12.68,12.68,0,0,0,3645.55,752h228.27a12.68,12.68,0,0,0,12.68-12.68V634.69A9.51,9.51,0,0,0,3877,625.18Zm-193.4,84a4.75,4.75,0,0,1-4.76,4.76H3663a4.75,4.75,0,0,1-4.76-4.76V693.35a4.75,4.75,0,0,1,4.76-4.76h15.85a4.75,4.75,0,0,1,4.76,4.76Zm0-38a4.75,4.75,0,0,1-4.76,4.76H3663a4.75,4.75,0,0,1-4.76-4.76V655.3a4.75,4.75,0,0,1,4.76-4.76h15.85a4.75,4.75,0,0,1,4.76,4.76Zm0-38a4.75,4.75,0,0,1-4.76,4.76H3663a4.75,4.75,0,0,1-4.76-4.76V617.26a4.75,4.75,0,0,1,4.76-4.76h15.85a4.75,4.75,0,0,1,4.76,4.76Zm50.73,76.09a4.75,4.75,0,0,1-4.76,4.76h-15.85a4.75,4.75,0,0,1-4.76-4.76V693.35a4.75,4.75,0,0,1,4.76-4.76h15.85a4.75,4.75,0,0,1,4.76,4.76Zm0-38a4.75,4.75,0,0,1-4.76,4.76h-15.85a4.75,4.75,0,0,1-4.76-4.76V655.3a4.75,4.75,0,0,1,4.76-4.76h15.85a4.75,4.75,0,0,1,4.76,4.76Zm0-38a4.75,4.75,0,0,1-4.76,4.76h-15.85a4.75,4.75,0,0,1-4.76-4.76V617.26a4.75,4.75,0,0,1,4.76-4.76h15.85a4.75,4.75,0,0,1,4.76,4.76Zm63.41,38a4.75,4.75,0,0,1-4.76,4.76h-15.85a4.75,4.75,0,0,1-4.76-4.76V655.3a4.75,4.75,0,0,1,4.76-4.76H3793a4.75,4.75,0,0,1,4.76,4.76Zm0-38a4.75,4.75,0,0,1-4.76,4.76h-15.85a4.75,4.75,0,0,1-4.76-4.76V617.26a4.75,4.75,0,0,1,4.76-4.76H3793a4.75,4.75,0,0,1,4.76,4.76Zm0-38a4.75,4.75,0,0,1-4.76,4.76h-15.85a4.75,4.75,0,0,1-4.76-4.76V579.21a4.75,4.75,0,0,1,4.76-4.76H3793a4.75,4.75,0,0,1,4.76,4.76Zm63.41,114.14a4.75,4.75,0,0,1-4.76,4.76h-15.85a4.75,4.75,0,0,1-4.76-4.76V693.35a4.75,4.75,0,0,1,4.76-4.76h15.85a4.75,4.75,0,0,1,4.76,4.76Zm0-38a4.75,4.75,0,0,1-4.76,4.76h-15.85a4.75,4.75,0,0,1-4.76-4.76V655.3a4.75,4.75,0,0,1,4.76-4.76h15.85a4.75,4.75,0,0,1,4.76,4.76Z" transform="translate(-1973 -5)"/><path class="cls-2" d="M3753.77,489.27H3644a3.24,3.24,0,0,0-3.23,3.23v3.23A3.24,3.24,0,0,0,3644,499h109.79a3.24,3.24,0,0,0,3.23-3.23V492.5A3.24,3.24,0,0,0,3753.77,489.27Zm-96.87,19.38h-25.83a3.24,3.24,0,0,0-3.23,3.23v3.23a3.24,3.24,0,0,0,3.23,3.23h25.83a3.24,3.24,0,0,0,3.23-3.23v-3.23A3.24,3.24,0,0,0,3656.9,508.65Zm84,0H3673a3.24,3.24,0,0,0-3.23,3.23v3.23a3.24,3.24,0,0,0,3.23,3.23h67.81a3.24,3.24,0,0,0,3.23-3.23v-3.23A3.24,3.24,0,0,0,3740.85,508.65Zm-84-35.52h31.5a25.43,25.43,0,0,0,33.87,0h12.13a22.6,22.6,0,1,0,0-45.21,22.31,22.31,0,0,0-10,2.44,28.85,28.85,0,0,0-46.48-6.32,29,29,0,1,0-21,49.08Z" transform="translate(-1973 -5)"/><path class="cls-4" d="M2778.15,731.54l-13.52-15.31h5.18a3.84,3.84,0,0,0,3.52-2.21,3.73,3.73,0,0,0-.55-4.07l-13.22-15.38h4.89a3.83,3.83,0,0,0,3.53-2.3,3.76,3.76,0,0,0-.72-4.07l-18.66-19.88a2.79,2.79,0,0,0-3.95,0L2726,688.2a3.77,3.77,0,0,0-.72,4.07,3.84,3.84,0,0,0,3.53,2.3h4.89L2720.48,710a3.74,3.74,0,0,0-.55,4.07,3.84,3.84,0,0,0,3.52,2.21h5.18l-13.52,15.31a3.74,3.74,0,0,0-.6,4.1,3.92,3.92,0,0,0,3.55,2.24h23.16V742l-5.12,8.19a2.71,2.71,0,0,0,2.42,3.92h16.24a2.71,2.71,0,0,0,2.42-3.92L2752,742v-4.14h23.16a3.92,3.92,0,0,0,3.55-2.24A3.74,3.74,0,0,0,2778.15,731.54Z" transform="translate(-1973 -5)"/><path class="cls-4" d="M2806.75,733.11l-11.9-13.48h4.56a3.38,3.38,0,0,0,3.1-1.95,3.28,3.28,0,0,0-.49-3.58l-11.64-13.54h4.3a3.37,3.37,0,0,0,3.11-2,3.31,3.31,0,0,0-.63-3.59l-16.42-17.5a2.45,2.45,0,0,0-3.47,0l-6.76,7.21.72.77a7.83,7.83,0,0,1-2.46,12.47l8.09,9.41a7.73,7.73,0,0,1,1.14,8.44,7.83,7.83,0,0,1-4,3.87l8.16,9.25a7.84,7.84,0,0,1,1.24,8.49,8,8,0,0,1-7.22,4.58h-2v.4l-4.51,7.21a2.38,2.38,0,0,0,2.13,3.45h14.29a2.38,2.38,0,0,0,2.13-3.45l-4.51-7.21v-3.64h20.38a3.45,3.45,0,0,0,3.13-2A3.29,3.29,0,0,0,2806.75,733.11Z" transform="translate(-1973 -5)"/></g></svg>